<svg width="28.39mm" height="32.719mm" version="1.1" viewBox="0 0 28.39 32.719" xmlns="http://www.w3.org/2000/svg"><g transform="translate(-102.35 -71.422)"><path d="m116.95 83.664m1.463 3.811a4.0821 4.0821 0 1 0-2.926 0l-2.7497 7.1648a11.756 11.756 0 1 1 8.4254 0z" fill="#3fa652" stroke="#21552a" stroke-linejoin="round" stroke-width=".97969"/><g stroke-width=".13286"><g transform="scale(.99041 1.0097)" aria-label="open    "><path d="m104.51 96.236q-0.33753 0-0.53366 0.26455-0.19614 0.26227-0.19614 0.72067 0 0.4584 0.19386 0.72295 0.19613 0.26227 0.53594 0.26227 0.33524 0 0.53137-0.26455 0.19614-0.26455 0.19614-0.72067 0-0.45384-0.19614-0.71839-0.19613-0.26683-0.53137-0.26683zm0-0.35577q0.54734 0 0.85978 0.35577t0.31244 0.98522q0 0.62716-0.31244 0.98522-0.31244 0.35577-0.85978 0.35577-0.54963 0-0.86207-0.35577-0.31016-0.35805-0.31016-0.98522 0-0.62944 0.31016-0.98522 0.31244-0.35577 0.86207-0.35577z"/><path d="m106.79 98.113v1.3547h-0.42191v-3.5258h0.42191v0.3877q0.13227-0.22806 0.33297-0.33753 0.20297-0.11175 0.48348-0.11175 0.46524 0 0.75488 0.36946 0.29192 0.36946 0.29192 0.97153 0 0.60208-0.29192 0.97153-0.28964 0.36946-0.75488 0.36946-0.28051 0-0.48348-0.10947-0.2007-0.11175-0.33297-0.33981zm1.4276-0.89171q0-0.46296-0.19157-0.72523-0.18929-0.26455-0.52225-0.26455-0.33297 0-0.52454 0.26455-0.18929 0.26227-0.18929 0.72523t0.18929 0.72751q0.19157 0.26227 0.52454 0.26227 0.33296 0 0.52225-0.26227 0.19157-0.26455 0.19157-0.72751z"/><path d="m111.53 97.114v0.20525h-1.9294q0.0274 0.43331 0.25999 0.66137 0.2349 0.22578 0.65225 0.22578 0.24175 0 0.46753-0.0593 0.22805-0.05929 0.45155-0.17789v0.39682q-0.22578 0.09579-0.46296 0.14596-0.23718 0.05017-0.4812 0.05017-0.6112 0-0.96926-0.35577-0.35577-0.35577-0.35577-0.96241 0-0.62716 0.33753-0.99434 0.33981-0.36946 0.91452-0.36946 0.51541 0 0.81417 0.33297 0.30104 0.33069 0.30104 0.90084zm-0.41963-0.12315q-5e-3 -0.34437-0.19385-0.54962-0.18701-0.20525-0.49717-0.20525-0.35121 0-0.56331 0.19841-0.20981 0.19841-0.24174 0.55875z"/><path d="m114.34 96.954v1.5417h-0.41963v-1.528q0-0.36262-0.14139-0.54278-0.1414-0.18017-0.42419-0.18017-0.33981 0-0.53594 0.21666-0.19614 0.21666-0.19614 0.59067v1.4436h-0.42191v-2.5543h0.42191v0.39682q0.15052-0.23034 0.3535-0.34437 0.20525-0.11403 0.47208-0.11403 0.44016 0 0.66593 0.27367 0.22578 0.27139 0.22578 0.80049z"/></g><g transform="scale(.99041 1.0097)" aria-label="source    "><path d="m118.81 95.934v0.39682q-0.17788-0.09122-0.36945-0.13684-0.19157-0.04561-0.39683-0.04561-0.31244 0-0.4698 0.09579-0.15508 0.09578-0.15508 0.28736 0 0.14596 0.11175 0.23034 0.11175 0.0821 0.44928 0.15736l0.14367 0.03193q0.447 0.09578 0.63401 0.27139 0.18929 0.17332 0.18929 0.48577 0 0.35577-0.28279 0.56331-0.28052 0.20753-0.77313 0.20753-0.20525 0-0.42875-0.04105-0.22122-0.03877-0.46752-0.11859v-0.43331q0.23262 0.12087 0.4584 0.18245 0.22578 0.05929 0.447 0.05929 0.29647 0 0.45611-0.10035 0.15965-0.10263 0.15965-0.28736 0-0.17104-0.11631-0.26227-0.11403-0.09122-0.50402-0.1756l-0.14595-0.03421q-0.38999-0.0821-0.56331-0.25087-0.17333-0.17104-0.17333-0.46752 0-0.36033 0.25543-0.55646 0.25543-0.19613 0.72523-0.19613 0.23262 0 0.43787 0.03421 0.20526 0.03421 0.37858 0.10263z"/><path d="m120.61 96.152q-0.33753 0-0.53366 0.26455-0.19613 0.26227-0.19613 0.72067 0 0.4584 0.19385 0.72295 0.19613 0.26227 0.53594 0.26227 0.33525 0 0.53138-0.26455t0.19613-0.72067q0-0.45384-0.19613-0.71839-0.19613-0.26683-0.53138-0.26683zm0-0.35577q0.54735 0 0.85979 0.35577t0.31244 0.98522q0 0.62716-0.31244 0.98522-0.31244 0.35577-0.85979 0.35577-0.54962 0-0.86206-0.35577-0.31016-0.35805-0.31016-0.98522 0-0.62944 0.31016-0.98522 0.31244-0.35577 0.86206-0.35577z"/><path d="m122.43 97.404v-1.5462h0.41963v1.5303q0 0.36262 0.1414 0.54506 0.14139 0.18017 0.42419 0.18017 0.3398 0 0.53594-0.21666 0.19841-0.21666 0.19841-0.59067v-1.4482h0.41963v2.5543h-0.41963v-0.39226q-0.1528 0.23262-0.35577 0.34665-0.2007 0.11175-0.46753 0.11175-0.44015 0-0.66821-0.27367-0.22806-0.27367-0.22806-0.80049z"/><path d="m126.91 96.251q-0.0707-0.04105-0.15508-0.05929-0.0821-0.02053-0.18245-0.02053-0.35577 0-0.54734 0.23262-0.18929 0.23034-0.18929 0.66365v1.3456h-0.42191v-2.5543h0.42191v0.39682q0.13227-0.23262 0.34437-0.34437 0.21209-0.11403 0.51541-0.11403 0.0433 0 0.0958 0.0068 0.0524 0.0046 0.11631 0.01596z"/><path d="m129.09 95.956v0.39226q-0.17789-0.09807-0.35805-0.14596-0.17789-0.05017-0.36034-0.05017-0.40823 0-0.634 0.25999-0.22578 0.25771-0.22578 0.72523t0.22578 0.72751q0.22577 0.25771 0.634 0.25771 0.18245 0 0.36034-0.04789 0.18016-0.05017 0.35805-0.14824v0.3877q-0.17561 0.0821-0.3649 0.12315-0.18701 0.04105-0.3991 0.04105-0.57699 0-0.9168-0.36262-0.33981-0.36261-0.33981-0.97838 0-0.62488 0.34209-0.98294 0.34437-0.35805 0.94189-0.35805 0.19385 0 0.37858 0.04105 0.18472 0.03877 0.35805 0.11859z"/><path d="m132.01 97.03v0.20525h-1.9294q0.0274 0.43331 0.25998 0.66137 0.2349 0.22578 0.65225 0.22578 0.24175 0 0.46753-0.0593 0.22806-0.0593 0.45155-0.17789v0.39682q-0.22578 0.09578-0.46296 0.14596-0.23718 0.05017-0.4812 0.05017-0.6112 0-0.96926-0.35577-0.35577-0.35577-0.35577-0.96241 0-0.62716 0.33753-0.99434 0.33981-0.36946 0.91452-0.36946 0.51541 0 0.81417 0.33297 0.30104 0.33069 0.30104 0.90084zm-0.41963-0.12315q-5e-3 -0.34437-0.19385-0.54962-0.18701-0.20525-0.49717-0.20525-0.35121 0-0.56331 0.19841-0.20981 0.19841-0.24174 0.55875z"/></g><g transform="scale(.99041 1.0097)" aria-label="initiative    "><path d="m108.08 100.52h0.41963v2.5543h-0.41963zm0-0.99434h0.41963v0.53138h-0.41963z"/><path d="m111.5 101.53v1.5417h-0.41963v-1.528q0-0.36261-0.1414-0.54278-0.14139-0.18017-0.42419-0.18017-0.33981 0-0.53594 0.21666t-0.19613 0.59067v1.4436h-0.42191v-2.5543h0.42191v0.39683q0.15052-0.23034 0.35349-0.34437 0.20526-0.11403 0.47209-0.11403 0.44015 0 0.66593 0.27367 0.22578 0.27139 0.22578 0.80049z"/><path d="m112.33 100.52h0.41963v2.5543h-0.41963zm0-0.99434h0.41963v0.53138h-0.41963z"/><path d="m114.05 99.797v0.72522h0.86434v0.32613h-0.86434v1.3866q0 0.31244 0.0844 0.40139 0.0867 0.0889 0.34893 0.0889h0.43103v0.35121h-0.43103q-0.48577 0-0.6705-0.18017-0.18472-0.18244-0.18472-0.66137v-1.3866h-0.30789v-0.32613h0.30789v-0.72522z"/><path d="m115.46 100.52h0.41962v2.5543h-0.41962zm0-0.99434h0.41962v0.53138h-0.41962z"/><path d="m117.92 101.79q-0.50858 0-0.70471 0.11631t-0.19613 0.39682q0 0.2235 0.14596 0.35577 0.14824 0.13 0.40138 0.13 0.34894 0 0.55875-0.24631 0.2121-0.24858 0.2121-0.65909v-0.0935zm0.83698-0.17333v1.4573h-0.41963v-0.3877q-0.14368 0.23262-0.35806 0.34437-0.21437 0.10947-0.52453 0.10947-0.39227 0-0.62489-0.21894-0.23034-0.22122-0.23034-0.59067 0-0.43104 0.28736-0.64997 0.28963-0.21894 0.86206-0.21894h0.5884v-0.041q0-0.28964-0.19157-0.447-0.18929-0.15964-0.53366-0.15964-0.21894 0-0.42647 0.0525-0.20754 0.0525-0.39911 0.15737v-0.38771q0.23034-0.0889 0.447-0.13227 0.21665-0.0456 0.42191-0.0456 0.55418 0 0.82785 0.28735 0.27368 0.28736 0.27368 0.87119z"/><path d="m120.04 99.797v0.72522h0.86435v0.32613h-0.86435v1.3866q0 0.31244 0.0844 0.40139 0.0867 0.0889 0.34893 0.0889h0.43104v0.35121h-0.43104q-0.48576 0-0.67049-0.18017-0.18473-0.18244-0.18473-0.66137v-1.3866h-0.30788v-0.32613h0.30788v-0.72522z"/><path d="m121.45 100.52h0.41963v2.5543h-0.41963zm0-0.99434h0.41963v0.53138h-0.41963z"/><path d="m122.45 100.52h0.44472l0.79821 2.1438 0.7982-2.1438h0.44472l-0.95785 2.5543h-0.57015z"/><path d="m127.7 101.69v0.20525h-1.9294q0.0274 0.43332 0.25998 0.66138 0.23491 0.22578 0.65226 0.22578 0.24174 0 0.46752-0.0593 0.22806-0.0593 0.45156-0.17789v0.39683q-0.22578 0.0958-0.46297 0.14596-0.23718 0.0502-0.4812 0.0502-0.6112 0-0.96925-0.35577-0.35578-0.35578-0.35578-0.96242 0-0.62716 0.33753-0.99434 0.33981-0.36945 0.91452-0.36945 0.51541 0 0.81417 0.33297 0.30104 0.33068 0.30104 0.90083zm-0.41963-0.12315q-5e-3 -0.34437-0.19385-0.54963-0.18701-0.20525-0.49717-0.20525-0.35121 0-0.56331 0.19841-0.20981 0.19841-0.24174 0.55875z"/></g></g><path d="m128.94 94.09a1.062 1.0601 0 0 1-1.062 1.0601 1.062 1.0601 0 0 1-1.062-1.0601 1.062 1.0601 0 0 1 1.062-1.0602 1.062 1.0601 0 0 1 1.062 1.0602z" fill="none" stroke="#000" stroke-width=".30004"/><g aria-label="R"><path d="m127.86 93.957q0.0993 0 0.14203-0.03694 0.0435-0.03694 0.0435-0.1215 0-0.08374-0.0435-0.11986-0.0427-0.03612-0.14203-0.03612h-0.133v0.31443zm-0.133 0.21838v0.46385h-0.31607v-1.2257h0.48273q0.24219 0 0.35466 0.08128 0.1133 0.08128 0.1133 0.25696 0 0.1215-0.0591 0.1995-0.0583 0.07799-0.17651 0.11494 0.0649 0.01478 0.11575 0.06732 0.0517 0.05172 0.10427 0.15763l0.17158 0.34809h-0.3366l-0.14941-0.30458q-0.0452-0.09195-0.0919-0.12561-0.046-0.03366-0.12315-0.03366z" stroke-width=".13286"/></g></g></svg>
