<?xml version="1.0" encoding="UTF-8" standalone="no"?>
<svg
   xmlns:dc="http://purl.org/dc/elements/1.1/"
   xmlns:cc="http://creativecommons.org/ns#"
   xmlns:rdf="http://www.w3.org/1999/02/22-rdf-syntax-ns#"
   xmlns:svg="http://www.w3.org/2000/svg"
   xmlns="http://www.w3.org/2000/svg"
   xmlns:sodipodi="http://sodipodi.sourceforge.net/DTD/sodipodi-0.dtd"
   xmlns:inkscape="http://www.inkscape.org/namespaces/inkscape"
   width="297mm"
   height="420mm"
   viewBox="0 0 297 420"
   version="1.1"
   id="svg8"
   inkscape:version="1.0.1 (3bc2e813f5, 2020-09-07, custom)"
   sodipodi:docname="Free &amp; Open-source Software Poster.svg">
  <title
     id="title26">Free &amp; Open-source Software Poster</title>
  <defs
     id="defs2" />
  <sodipodi:namedview
     id="base"
     pagecolor="#ffffff"
     bordercolor="#666666"
     borderopacity="1.0"
     inkscape:pageopacity="0.0"
     inkscape:pageshadow="2"
     inkscape:zoom="0.47704262"
     inkscape:cx="325.09643"
     inkscape:cy="889.99367"
     inkscape:document-units="mm"
     inkscape:current-layer="layer1"
     inkscape:document-rotation="0"
     showgrid="false"
     inkscape:pagecheckerboard="true"
     inkscape:showpageshadow="false"
     borderlayer="true"
     inkscape:window-width="1920"
     inkscape:window-height="1016"
     inkscape:window-x="0"
     inkscape:window-y="0"
     inkscape:window-maximized="1"
     inkscape:snap-bbox="true"
     inkscape:bbox-paths="true"
     inkscape:bbox-nodes="true"
     inkscape:snap-bbox-edge-midpoints="true"
     inkscape:snap-bbox-midpoints="true"
     inkscape:object-paths="false"
     inkscape:snap-intersection-paths="false"
     inkscape:snap-smooth-nodes="false"
     inkscape:snap-midpoints="false"
     inkscape:snap-object-midpoints="false"
     inkscape:snap-center="false"
     inkscape:snap-text-baseline="true"
     inkscape:snap-page="true"
     showguides="true"
     inkscape:snap-global="true"
     inkscape:object-nodes="true">
    <sodipodi:guide
       position="0,420"
       orientation="0,1122.5197"
       id="guide10" />
    <sodipodi:guide
       position="297,420"
       orientation="1587.4016,0"
       id="guide12" />
    <sodipodi:guide
       position="297,0"
       orientation="0,-1122.5197"
       id="guide14" />
    <sodipodi:guide
       position="0,0"
       orientation="-1587.4016,0"
       id="guide16" />
    <sodipodi:guide
       position="0,420"
       orientation="0,1122.5197"
       id="guide18" />
    <sodipodi:guide
       position="297,420"
       orientation="1587.4016,0"
       id="guide20" />
    <sodipodi:guide
       position="297,0"
       orientation="0,-1122.5197"
       id="guide22" />
    <sodipodi:guide
       position="0,0"
       orientation="-1587.4016,0"
       id="guide24" />
    <sodipodi:guide
       position="0,420"
       orientation="0,1122.5197"
       id="guide110" />
    <sodipodi:guide
       position="297,420"
       orientation="1587.4016,0"
       id="guide112" />
    <sodipodi:guide
       position="297,0"
       orientation="0,-1122.5197"
       id="guide114" />
    <sodipodi:guide
       position="0,0"
       orientation="-1587.4016,0"
       id="guide116" />
    <sodipodi:guide
       position="25,395"
       orientation="1398.4252,0"
       id="guide120" />
    <sodipodi:guide
       position="25,25"
       orientation="0,933.54331"
       id="guide122" />
    <sodipodi:guide
       position="272,25"
       orientation="-1398.4252,0"
       id="guide124" />
    <sodipodi:guide
       position="272,395"
       orientation="0,-933.54331"
       id="guide126" />
  </sodipodi:namedview>
  <metadata
     id="metadata5">
    <rdf:RDF>
      <cc:Work
         rdf:about="">
        <dc:format>image/svg+xml</dc:format>
        <dc:type
           rdf:resource="http://purl.org/dc/dcmitype/StillImage" />
        <dc:title>Free &amp; Open-source Software Poster</dc:title>
        <cc:license
           rdf:resource="http://creativecommons.org/licenses/by-sa/4.0/" />
        <dc:creator>
          <cc:Agent>
            <dc:title>Ben Weston</dc:title>
          </cc:Agent>
        </dc:creator>
        <dc:language>English</dc:language>
      </cc:Work>
      <cc:License
         rdf:about="http://creativecommons.org/licenses/by-sa/4.0/">
        <cc:permits
           rdf:resource="http://creativecommons.org/ns#Reproduction" />
        <cc:permits
           rdf:resource="http://creativecommons.org/ns#Distribution" />
        <cc:requires
           rdf:resource="http://creativecommons.org/ns#Notice" />
        <cc:requires
           rdf:resource="http://creativecommons.org/ns#Attribution" />
        <cc:permits
           rdf:resource="http://creativecommons.org/ns#DerivativeWorks" />
        <cc:requires
           rdf:resource="http://creativecommons.org/ns#ShareAlike" />
      </cc:License>
    </rdf:RDF>
  </metadata>
  <g
     inkscape:label="Layer 1"
     inkscape:groupmode="layer"
     id="layer1">
    <g
       transform="matrix(0.05662269,0,0,0.05662269,148.5,184.95651)"
       id="g5"
       style="opacity:1;fill-rule:nonzero;stroke:#000000;stroke-miterlimit:4">
      <clipPath
         id="aiclp1">
        <path
           d="M 0,0 H 3390.47 V 395.159 H 0 Z"
           id="path8" />
      </clipPath>
      <g
         id="g10">
        <path
           d="M 86.4,193.619 H 0 v -64.8 h 86.4 v -50.4 H 72 v -36 h 14.4 v -14.4 h 36 v 14.4 h 216 C 398.068,11.152 468.102,5.081 528.635,4.336 c 66.813,-0.858 70.275,-0.107 97.53,0.088 115.368,0.859 123.32,1.368 139.603,-1.201 6.564,-1.081 13.763,3.26 14.332,6.495 1.323,7.172 -13.626,15.478 -18.242,16.941 -14.351,4.555 -40.043,6.616 -109.929,10.648 l -1.664,0.034 c -110.989,10.48 -173.253,36.647 -189.343,44.135 -63.641,29.703 -70.511,43.531 -62.237,52.355 8.768,9.358 58.312,-11.226 82.607,-18.164 48.282,-13.774 76.735,-0.583 94.708,13.152 h 43.2 v -7.2 H 648 v 7.2 h 244.8 v 64.8 H 648 v 50.401 h 208.8 v 36 H 648 V 395.219 H 619.2 V 280.02 h -14.4 v -36 h 14.4 v -50.401 h -14.4 c -0.249,25.469 -7.709,48.819 -14.848,58.438 C 523.32,341.562 221.084,353.077 127.459,354.605 103.834,355.01 86.923,351.047 86.4,344.818 M 253.773,127.251 c 4.039,-16.988 15.325,-34.298 28.846,-48.704 l -158.2,0.631 -0.574,49.838 129.117,0.524 0.61,1.033 M 751.955,11.815 c -1.645,-0.819 -85.667,3.864 -90.391,3.435 -4.723,-0.43 -55.339,0.295 -83.09,-0.43 -32.85,-0.859 -67.324,0.034 -99.409,3.006 -32.42,3.006 -65.914,13.097 -93.61,24.691 -26.348,11.031 -52.604,24.905 -73.215,41.223 -10.555,8.354 -18.579,17.633 -25.764,28.986 -8.159,12.881 -12.092,27.596 -6.657,39.935 5.859,13.284 18.962,19.168 35.212,21.685 14.754,2.294 32.85,1.073 44.444,3.435 6.884,1.402 18.183,3.254 18.894,9.877 0.644,6.011 -10.206,16.063 -15.244,18.463 -9.447,4.51 -22.115,0.645 -34.353,-1.932 -8.435,-1.771 -20.953,-5.878 -28.771,-9.448 -5.279,-2.414 -10.927,-4.32 -12.001,-4.32 -0.428,0 -165.813,-0.428 -165.6,0 0,2.791 -0.213,137.56 0,144 0.235,7.112 24.778,5.005 39.976,3.529 29.361,-2.873 59.902,-6.442 89.532,-10.735 16.942,-2.456 34.897,-5.637 51.958,-9.019 27.053,-5.366 59.401,-12.882 72.852,-17.177 33.642,-10.734 68.424,-20.181 100.2,-33.922 14.286,-6.173 31.347,-13.956 42.942,-21.901 12.358,-8.468 25.549,-20.182 31.132,-32.205 6.199,-13.352 8.097,-29.428 1.717,-44.015 -6.011,-13.741 -22.544,-25.978 -36.929,-28.341 -8.187,-1.342 -14.6,-2.147 -22.544,-1.503 -9.138,0.738 -24.691,4.079 -34.997,5.368 -16.942,2.12 -36.849,5.133 -53.462,2.577 -11.164,-1.719 -28.77,-16.103 -22.544,-32.85 4.563,-12.279 22.242,-24.88 32.85,-31.776 25.765,-16.748 72.114,-31.368 111.862,-40.795 33.493,-7.943 80.513,-14.385 120.234,-14.814 3.83,-0.04 39.713,-2.449 43.37,-2.577 60.332,-2.147 62.264,-12.023 61.406,-12.452"
           id="path12"
           style="fill:#b11107;stroke:none" />
      </g>
    </g>
    <g
       style="display:inline;opacity:1"
       id="g3879"
       transform="matrix(0.20803928,0,0,0.20803928,107.98287,364.27145)"
       inkscape:export-filename="/home/paulormm/usp/softwarelivre/OSI/OSI_member_card_model_final-300dpi.png"
       inkscape:export-xdpi="300.05554"
       inkscape:export-ydpi="300.05554">
      <path
         inkscape:export-ydpi="48.18"
         inkscape:export-xdpi="48.18"
         inkscape:export-filename="/home/rafael/workspace/logo-osi/3/png/logo396x412.png"
         id="path3773"
         d="m -287.05192,-768.95371 m 11.01179,28.68474 a 30.724865,30.724865 0 1 0 -22.02358,0 l -20.69627,53.92828 a 88.487611,88.487611 0 1 1 63.41612,0 z"
         inkscape:connector-curvature="0"
         style="text-anchor:middle;fill:#3fa652;stroke:#21552a;stroke-width:7.37397;stroke-linejoin:round" />
      <text
         inkscape:export-filename="/home/rafael/workspace/logo-osi/3/png/logo396x412.png"
         inkscape:export-ydpi="48.18"
         inkscape:export-xdpi="48.18"
         id="text7890-3-1"
         y="-643.90765"
         x="-402.74231"
         style="font-style:normal;font-weight:normal;line-height:0%;font-family:sans-serif;-inkscape-font-specification:Sans;letter-spacing:0px;word-spacing:0px;display:inline;fill:#20552a;fill-opacity:1;stroke:none"
         xml:space="preserve"
         transform="scale(0.99041196,1.0096809)"><tspan
           id="tspan3306"
           style="font-style:normal;font-variant:normal;font-weight:normal;font-stretch:normal;font-size:35.1552px;line-height:1.25;font-family:OpenSymbol;-inkscape-font-specification:Sans;fill:#000000;fill-opacity:1"
           y="-643.90765"
           x="-402.74231"
           sodipodi:role="line">open</tspan><tspan
           id="tspan3294-7"
           style="font-style:normal;font-variant:normal;font-weight:normal;font-stretch:normal;font-size:35.1552px;line-height:1.25;font-family:FreeSans;-inkscape-font-specification:Sans;fill:#000000;fill-opacity:1"
           y="-598.54919"
           x="-402.74231"
           sodipodi:role="line"> </tspan><tspan
           id="tspan7894-2-9"
           style="font-weight:normal;font-size:35.1552px;line-height:1.25;font-family:sans-serif;-inkscape-font-specification:Sans;fill:#20552a;fill-opacity:1"
           y="-554.60522"
           x="-402.74231"
           sodipodi:role="line"> </tspan></text>
      <text
         inkscape:export-filename="/home/rafael/workspace/logo-osi/3/png/logo396x412.png"
         inkscape:export-ydpi="48.18"
         inkscape:export-xdpi="48.18"
         id="text7890-3-1-1"
         y="-644.53589"
         x="-299.91721"
         style="font-style:normal;font-weight:normal;line-height:0%;font-family:sans-serif;-inkscape-font-specification:Sans;letter-spacing:0px;word-spacing:0px;display:inline;fill:#20552a;fill-opacity:1;stroke:none"
         xml:space="preserve"
         transform="scale(0.99041196,1.0096809)"><tspan
           id="tspan3306-2"
           style="font-style:normal;font-variant:normal;font-weight:normal;font-stretch:normal;font-size:35.1552px;line-height:1.25;font-family:OpenSymbol;-inkscape-font-specification:Sans;fill:#000000;fill-opacity:1"
           y="-644.53589"
           x="-299.91721"
           sodipodi:role="line">source</tspan><tspan
           id="tspan3294-7-9"
           style="font-style:normal;font-variant:normal;font-weight:normal;font-stretch:normal;font-size:35.1552px;line-height:1.25;font-family:FreeSans;-inkscape-font-specification:Sans;fill:#000000;fill-opacity:1"
           y="-599.17743"
           x="-299.91721"
           sodipodi:role="line"> </tspan><tspan
           id="tspan7894-2-9-4"
           style="font-weight:normal;font-size:35.1552px;line-height:1.25;font-family:sans-serif;-inkscape-font-specification:Sans;fill:#20552a;fill-opacity:1"
           y="-555.23346"
           x="-299.91721"
           sodipodi:role="line"> </tspan></text>
      <text
         inkscape:export-filename="/home/rafael/workspace/logo-osi/3/png/logo396x412.png"
         inkscape:export-ydpi="48.18"
         inkscape:export-xdpi="48.18"
         id="text7890-3-1-1-4"
         y="-609.43024"
         x="-368.47388"
         style="font-style:normal;font-weight:normal;line-height:0%;font-family:sans-serif;-inkscape-font-specification:Sans;letter-spacing:0px;word-spacing:0px;display:inline;fill:#20552a;fill-opacity:1;stroke:none"
         xml:space="preserve"
         transform="scale(0.99041196,1.0096809)"><tspan
           id="tspan3306-2-7"
           style="font-style:normal;font-variant:normal;font-weight:normal;font-stretch:normal;font-size:35.1552px;line-height:1.25;font-family:OpenSymbol;-inkscape-font-specification:Sans;fill:#000000;fill-opacity:1"
           y="-609.43024"
           x="-368.47388"
           sodipodi:role="line">initiative</tspan><tspan
           id="tspan3294-7-9-2"
           style="font-style:normal;font-variant:normal;font-weight:normal;font-stretch:normal;font-size:35.1552px;line-height:1.25;font-family:FreeSans;-inkscape-font-specification:Sans;fill:#000000;fill-opacity:1"
           y="-564.07178"
           x="-368.47388"
           sodipodi:role="line"> </tspan><tspan
           id="tspan7894-2-9-4-5"
           style="font-weight:normal;font-size:35.1552px;line-height:1.25;font-family:sans-serif;-inkscape-font-specification:Sans;fill:#20552a;fill-opacity:1"
           y="-520.12781"
           x="-368.47388"
           sodipodi:role="line"> </tspan></text>
      <g
         id="g3797"
         transform="translate(-21.225811,-1.0146812)"
         inkscape:export-filename="/home/rafael/workspace/logo-osi/3/png/logo396x412.png"
         inkscape:export-xdpi="48.18"
         inkscape:export-ydpi="48.18">
        <ellipse
           transform="matrix(0.33912491,0,0,0.33852655,-402.53969,-908.3754)"
           id="path3015"
           style="fill:none;stroke:#000000;stroke-width:6.66514;stroke-miterlimit:4;stroke-dasharray:none;stroke-opacity:1"
           cx="645.71429"
           cy="646.64789"
           rx="23.571428"
           ry="23.571411" />
        <text
           id="text3793"
           y="-685.33014"
           x="-188.29698"
           style="font-style:normal;font-variant:normal;font-weight:bold;font-stretch:normal;line-height:0%;font-family:OpenSymbol;-inkscape-font-specification:'OpenSymbol Bold';letter-spacing:0px;word-spacing:0px;fill:#000000;fill-opacity:1;stroke:none"
           xml:space="preserve"><tspan
             y="-685.33014"
             x="-188.29698"
             id="tspan3795"
             sodipodi:role="line"
             style="font-size:12.6552px;line-height:1.25">R</tspan></text>
      </g>
    </g>
    <rect
       style="opacity:1;fill:#3fa652;fill-opacity:1;stroke:#000000;stroke-width:0;stroke-miterlimit:1.5"
       id="rect1865"
       width="297"
       height="103.184"
       x="-1.2792882e-06"
       y="1.6020238e-06"
       ry="24.999996"
       rx="25" />
    <rect
       style="opacity:1;fill:none;fill-opacity:0.982342;stroke:#000000;stroke-width:0;stroke-miterlimit:1.5"
       id="rect1871"
       width="247"
       height="70"
       x="25"
       y="25" />
    <text
       xml:space="preserve"
       style="font-style:normal;font-variant:normal;font-weight:normal;font-stretch:normal;font-size:26.4583px;line-height:1.25;font-family:'DejaVu Sans';-inkscape-font-specification:'DejaVu Sans';white-space:pre;shape-inside:url(#rect1871);opacity:1;fill:#ffffff;fill-opacity:1;stroke:none;stroke-width:0.264583;"
       x="146.74673"
       y="62.437992"
       id="text1863"
       transform="translate(-1.2832291,-4.210493)"><tspan
         x="25.059114"
         y="49.07375"><tspan
           style="font-style:normal;font-variant:normal;font-weight:normal;font-stretch:normal;font-size:26.4583px;font-family:'Noto Sans';-inkscape-font-specification:'Noto Sans';text-align:center;text-anchor:middle;fill:#ffffff;stroke-width:0.264583">Free &amp; Open-source </tspan></tspan><tspan
         x="93.427149"
         y="82.810982"><tspan
           style="font-style:normal;font-variant:normal;font-weight:normal;font-stretch:normal;font-size:26.4583px;font-family:'Noto Sans';-inkscape-font-specification:'Noto Sans';text-align:center;text-anchor:middle;fill:#ffffff;stroke-width:0.264583">Software</tspan></tspan></text>
    <rect
       style="opacity:1;fill:none;fill-opacity:0.941176;stroke:#000000;stroke-width:0;stroke-miterlimit:1.5"
       id="rect1881"
       width="247"
       height="63.700184"
       x="25"
       y="121.42927" />
    <text
       xml:space="preserve"
       style="font-size:6.35px;line-height:1.25;font-family:sans-serif;white-space:pre;shape-inside:url(#rect1881);opacity:1;stroke-width:0.264583;"
       x="50.019333"
       y="150.44269"
       id="text1885"
       transform="translate(-0.58184636,-9.0394375)"><tspan
         x="25"
         y="127.04795"><tspan
           style="font-size:6.35px;stroke-width:0.264583">The software that you use everyday is generally proprietary. This means that </tspan></tspan><tspan
         x="25"
         y="134.98545"><tspan
           style="font-size:6.35px;stroke-width:0.264583">you can never see the original code that went into making the programs you </tspan></tspan><tspan
         x="25"
         y="142.92295"><tspan
           style="font-size:6.35px;stroke-width:0.264583">run. Most people may not see this an an issue but a proprietary program </tspan></tspan><tspan
         x="25"
         y="150.86045"><tspan
           style="font-size:6.35px;stroke-width:0.264583">could be doing anything in the background with your data and hardware. If </tspan></tspan><tspan
         x="25"
         y="158.79795"><tspan
           style="font-size:6.35px;stroke-width:0.264583">you, or others, could audit and modify this code then you could ensure that </tspan></tspan><tspan
         x="25"
         y="166.73545"><tspan
           style="font-size:6.35px;stroke-width:0.264583">you are happy with what you are running and also enables you to modify the </tspan></tspan><tspan
         x="25"
         y="174.67295"><tspan
           style="font-size:6.35px;stroke-width:0.264583">software as you see fit. There are two main organisations who aim to combat </tspan></tspan><tspan
         x="25"
         y="182.61045"><tspan
           style="font-size:6.35px;stroke-width:0.264583">this issue: Free Software Foundation; Open Source Initiative. </tspan></tspan></text>
  </g>
</svg>
