<svg width="50mm" height="63.605mm" version="1.1" viewBox="0 0 50 63.605" xmlns="http://www.w3.org/2000/svg"><g transform="matrix(.37879 0 0 .37879 0 13.609)"><rect width="132" height="132" fill="#fff"/><g><path d="m114 116c-1.1046 0-2-0.89543-2-2s0.89543-2 2-2 2 0.89543 2 2-0.89543 2-2 2zm-12 0c-1.1046 0-2-0.89543-2-2v-2h2c1.1046 0 2 0.89543 2 2s-0.89543 2-2 2zm-12 0h-8c-1.1046 0-2-0.89543-2-2s-0.89543-2-2-2h-2v-4h2c1.1046 0 2-0.89543 2-2v-2h4v2c0 1.1046 0.89543 2 2 2s2 0.89543 2 2 0.89543 2 2 2h2v2c0 1.1046-0.89543 2-2 2zm-16 0c-1.1046 0-2-0.89543-2-2s0.89543-2 2-2h2v2c0 1.1046-0.89543 2-2 2zm-20 0h-4c-1.1046 0-2-0.89543-2-2v-8c0-1.1046 0.89543-2 2-2h6v2c0 1.1046-0.89543 2-2 2s-2 0.89543-2 2 0.89543 2 2 2 2 0.89543 2 2-0.89543 2-2 2zm-12 0h-24c-1.1046 0-2-0.89543-2-2v-24c0-1.1046 0.89543-2 2-2h24c1.1046 0 2 0.89543 2 2v24c0 1.1046-0.89543 2-2 2zm56-4h-6v-6c0-1.1046 0.89543-2 2-2s2-0.89543 2-2-0.89543-2-2-2h-4c-1.1046 0-2 0.89543-2 2s-0.89543 2-2 2h-2v-2c0-1.1046-0.89543-2-2-2s-2 0.89543-2 2v2h-2c-1.1046 0-2 0.89543-2 2v2h-2c-1.1046 0-2-0.89543-2-2s-0.89543-2-2-2-2-0.89543-2-2-0.89543-2-2-2h-2v-8h2c1.1046 0 2 0.89543 2 2s0.89543 2 2 2 2 0.89543 2 2 0.89543 2 2 2 2-0.89543 2-2 0.89543-2 2-2 2-0.89543 2-2v-12c0-1.1046-0.89543-2-2-2s-2-0.89543-2-2-0.89543-2-2-2-2-0.89543-2-2v-4c0-1.1046 0.89543-2 2-2s2-0.89543 2-2v-4c0-1.1046-0.89543-2-2-2h-6v-2c0-1.1046-0.89543-2-2-2s-2 0.89543-2 2v2h-2c-1.1046 0-2 0.89543-2 2s0.89543 2 2 2 2-0.89543 2-2v-2h4v10c0 1.1046-0.89543 2-2 2s-2 0.89543-2 2 0.89543 2 2 2 2 0.89543 2 2-0.89543 2-2 2-2 0.89543-2 2v2h-4v-10c0-1.1046-0.89543-2-2-2h-4c-1.1046 0-2 0.89543-2 2v6h-8v-2c0-1.1046-0.89543-2-2-2h-2v-4h6c1.1046 0 2-0.89543 2-2s-0.89543-2-2-2h-4c-1.1046 0-2 0.89543-2 2v2h-8v-2c0-1.1046 0.89543-2 2-2s2-0.89543 2-2 0.89543-2 2-2h4c1.1046 0 2-0.89543 2-2v-2h8v2c0 1.1046 0.89543 2 2 2s2-0.89543 2-2-0.89543-2-2-2h-2v-4h6c1.1046 0 2-0.89543 2-2v-10h2c1.1046 0 2-0.89543 2-2v-4c0-1.1046-0.89543-2-2-2h-2v-6c0-1.1046 0.89543-2 2-2s2 0.89543 2 2 0.89543 2 2 2h4c1.1046 0 2-0.89543 2-2v-2h6c1.1046 0 2 0.89543 2 2v2h-2c-1.1046 0-2 0.89543-2 2v8c0 1.1046-0.89543 2-2 2s-2-0.89543-2-2v-4c0-1.1046-0.89543-2-2-2s-2 0.89543-2 2v8c0 1.1046-0.89543 2-2 2s-2 0.89543-2 2 0.89543 2 2 2h4c1.1046 0 2 0.89543 2 2s0.89543 2 2 2 2-0.89543 2-2v-4c0-1.1046 0.89543-2 2-2s2-0.89543 2-2v-14h2c1.1046 0 2 0.89543 2 2v12c0 1.1046 0.89543 2 2 2h12c1.1046 0 2 0.89543 2 2v2h-2c-1.1046 0-2 0.89543-2 2v2h-6c-1.1046 0-2-0.89543-2-2s-0.89543-2-2-2-2 0.89543-2 2v6h-2c-1.1046 0-2 0.89543-2 2s0.89543 2 2 2h2v2c0 1.1046 0.89543 2 2 2s2-0.89543 2-2-0.89543-2-2-2h-2v-4h6c1.1046 0 2 0.89543 2 2v4c0 1.1046 0.89543 2 2 2s2 0.89543 2 2-0.89543 2-2 2-2 0.89543-2 2v2h-4v-2c0-1.1046-0.89543-2-2-2s-2 0.89543-2 2 0.89543 2 2 2h2v2c0 1.1046 0.89543 2 2 2s2-0.89543 2-2v-2h6c1.1046 0 2-0.89543 2-2s0.89543-2 2-2h6v2c0 1.1046-0.89543 2-2 2s-2 0.89543-2 2-0.89543 2-2 2-2 0.89543-2 2v20c0 1.1046 0.89543 2 2 2h2v2c0 1.1046-0.89543 2-2 2s-2 0.89543-2 2v2zm-58-2v-16c0-1.1046-0.89543-2-2-2h-16c-1.1046 0-2 0.89543-2 2v16c0 1.1046 0.89543 2 2 2h16c1.1046 0 2-0.89543 2-2zm74-2h-4c-1.1046 0-2-0.89543-2-2s-0.89543-2-2-2h-2v-2c0-1.1046 0.89543-2 2-2h4c1.1046 0 2 0.89543 2 2s0.89543 2 2 2 2 0.89543 2 2-0.89543 2-2 2zm-52 0c-1.1046 0-2-0.89543-2-2s-0.89543-2-2-2h-2v-8h2c1.1046 0 2 0.89543 2 2s0.89543 2 2 2h2v6c0 1.1046-0.89543 2-2 2zm-28 0h-8c-1.1046 0-2-0.89543-2-2v-8c0-1.1046 0.89543-2 2-2h8c1.1046 0 2 0.89543 2 2v8c0 1.1046-0.89543 2-2 2zm62-14v-8c0-1.1046-0.89543-2-2-2h-8c-1.1046 0-2 0.89543-2 2v8c0 1.1046 0.89543 2 2 2h8c1.1046 0 2-0.89543 2-2zm-42 2h-4c-1.1046 0-2-0.89543-2-2s0.89543-2 2-2 2-0.89543 2-2v-2h4v8zm60-4c-1.1046 0-2-0.89543-2-2v-6h2c1.1046 0 2 0.89543 2 2v4c0 1.1046-0.89543 2-2 2zm-24 0c-1.1046 0-2-0.89543-2-2s0.89543-2 2-2 2 0.89543 2 2-0.89543 2-2 2zm-16 0c-1.1046 0-2-0.89543-2-2v-2h2c1.1046 0 2 0.89543 2 2s-0.89543 2-2 2zm-12 0c-1.1046 0-2-0.89543-2-2v-2h4v4zm8-4h-6v-4h6c1.1046 0 2 0.89543 2 2v2zm-12 0h-2v-4h4v4zm-8 0c-1.1046 0-2-0.89543-2-2s0.89543-2 2-2h2v4zm60-4c-1.1046 0-2-0.89543-2-2s0.89543-2 2-2 2 0.89543 2 2v2zm-56 0h-2v-4h2c1.1046 0 2 0.89543 2 2v2zm-12 0c-1.1046 0-2-0.89543-2-2v-2h4v2c0 1.1046-0.89543 2-2 2zm-16 0h-8c-1.1046 0-2-0.89543-2-2s0.89543-2 2-2h4c1.1046 0 2-0.89543 2-2v-2h2c1.1046 0 2-0.89543 2-2s0.89543-2 2-2h2v6c0 1.1046-0.89543 2-2 2s-2 0.89543-2 2-0.89543 2-2 2zm12-4c-1.1046 0-2-0.89543-2-2s0.89543-2 2-2h2v4zm76-4c-1.1046 0-2-0.89543-2-2s-0.89543-2-2-2h-2v-2c0-1.1046 0.89543-2 2-2s2-0.89543 2-2 0.89543-2 2-2 2 0.89543 2 2v8c0 1.1046-0.89543 2-2 2zm-92 0h-4c-1.1046 0-2-0.89543-2-2s0.89543-2 2-2h4c1.1046 0 2 0.89543 2 2v2zm4-8h-8c-1.1046 0-2-0.89543-2-2v-8c0-1.1046 0.89543-2 2-2h4c1.1046 0 2-0.89543 2-2s-0.89543-2-2-2h-4c-1.1046 0-2-0.89543-2-2s0.89543-2 2-2h8c1.1046 0 2 0.89543 2 2v10h-6c-1.1046 0-2 0.89543-2 2s0.89543 2 2 2h6v2c0 1.1046-0.89543 2-2 2zm76-4h-4c-1.1046 0-2-0.89543-2-2v-6h2c1.1046 0 2-0.89543 2-2v-2h2c1.1046 0 2 0.89543 2 2s0.89543 2 2 2h2v2c0 1.1046-0.89543 2-2 2s-2 0.89543-2 2-0.89543 2-2 2zm-72 0h-2v-4h2c1.1046 0 2 0.89543 2 2s-0.89543 2-2 2zm84-4c-1.1046 0-2-0.89543-2-2s-0.89543-2-2-2h-2v-6c0-1.1046 0.89543-2 2-2h4c1.1046 0 2 0.89543 2 2v8c0 1.1046-0.89543 2-2 2zm-72 0h-4c-1.1046 0-2-0.89543-2-2s-0.89543-2-2-2-2-0.89543-2-2 0.89543-2 2-2 2-0.89543 2-2 0.89543-2 2-2h4c1.1046 0 2 0.89543 2 2s-0.89543 2-2 2-2 0.89543-2 2 0.89543 2 2 2 2 0.89543 2 2v2zm8-4c-1.1046 0-2-0.89543-2-2v-20c0-1.1046 0.89543-2 2-2s2 0.89543 2 2 0.89543 2 2 2h6v8h-4v-2c0-1.1046-0.89543-2-2-2s-2 0.89543-2 2 0.89543 2 2 2h2v6c0 1.1046-0.89543 2-2 2s-2 0.89543-2 2v2zm64-12h-24c-1.1046 0-2-0.89543-2-2v-24c0-1.1046 0.89543-2 2-2h24c1.1046 0 2 0.89543 2 2v24c0 1.1046-0.89543 2-2 2zm-72 0h-24c-1.1046 0-2-0.89543-2-2v-24c0-1.1046 0.89543-2 2-2h24c1.1046 0 2 0.89543 2 2v24c0 1.1046-0.89543 2-2 2zm70-6v-16c0-1.1046-0.89543-2-2-2h-16c-1.1046 0-2 0.89543-2 2v16c0 1.1046 0.89543 2 2 2h16c1.1046 0 2-0.89543 2-2zm-72 0v-16c0-1.1046-0.89543-2-2-2h-16c-1.1046 0-2 0.89543-2 2v16c0 1.1046 0.89543 2 2 2h16c1.1046 0 2-0.89543 2-2zm66-2h-8c-1.1046 0-2-0.89543-2-2v-8c0-1.1046 0.89543-2 2-2h8c1.1046 0 2 0.89543 2 2v8c0 1.1046-0.89543 2-2 2zm-72 0h-8c-1.1046 0-2-0.89543-2-2v-8c0-1.1046 0.89543-2 2-2h8c1.1046 0 2 0.89543 2 2v8c0 1.1046-0.89543 2-2 2zm36-8c-1.1046 0-2-0.89543-2-2v-8c0-1.1046 0.89543-2 2-2h8c1.1046 0 2 0.89543 2 2v2h-6c-1.1046 0-2 0.89543-2 2v6zm-16 0c-1.1046 0-2-0.89543-2-2v-2h2c1.1046 0 2 0.89543 2 2s-0.89543 2-2 2zm28-4c-1.1046 0-2-0.89543-2-2v-2h2c1.1046 0 2 0.89543 2 2s-0.89543 2-2 2zm-20 0c-1.1046 0-2-0.89543-2-2s-0.89543-2-2-2h-4c-1.1046 0-2 0.89543-2 2v2h-2c-1.1046 0-2-0.89543-2-2v-4c0-1.1046 0.89543-2 2-2h12c1.1046 0 2 0.89543 2 2v4c0 1.1046-0.89543 2-2 2z"/></g></g><path d="m5 0h40c2.77 0 5 2.23 5 5v9.0104c0 2.77-2.23 5-5 5h-40c-2.77 0-5-2.23-5-5v-9.0104c0-2.77 2.23-5 5-5z" fill="#fff" stroke-miterlimit="1.5" stroke-width="0"/><g transform="translate(-236.81 -343.36)" stroke-width=".26458" style="shape-inside:url(#rect1569);white-space:pre" aria-label="SCAN FOR A VIDEO GUIDE"><path d="m246.08 347.4v0.87092q-0.33899-0.15158-0.66145-0.22875-0.32247-0.0772-0.6091-0.0772-0.38034 0-0.56224 0.10473t-0.1819 0.32522q0 0.16536 0.12127 0.25907 0.12402 0.091 0.44648 0.15709l0.452 0.0909q0.68626 0.13781 0.97565 0.41893t0.28939 0.79926q0 0.68075-0.40514 1.0142-0.40239 0.33072-1.232 0.33072-0.39136 0-0.78548-0.0744t-0.78824-0.22049v-0.89572q0.39412 0.20946 0.76068 0.31695 0.36931 0.10473 0.71107 0.10473 0.34726 0 0.53192-0.11576 0.18465-0.11575 0.18465-0.33072 0-0.19293-0.12677-0.29766-0.12403-0.10473-0.49885-0.18741l-0.41066-0.0909q-0.61736-0.1323-0.90399-0.42168-0.28388-0.28939-0.28388-0.77997 0-0.61461 0.39688-0.94534 0.39687-0.33073 1.141-0.33073 0.339 0 0.69729 0.0524 0.35829 0.0496 0.74138 0.15158z"/><path d="m250.55 351.16q-0.29214 0.15158-0.60909 0.22875-0.31695 0.0772-0.66146 0.0772-1.028 0-1.6288-0.57326-0.60082-0.57602-0.60082-1.5599 0-0.98667 0.60082-1.5599 0.60083-0.57602 1.6288-0.57602 0.34451 0 0.66146 0.0772t0.60909 0.22875v0.85163q-0.2949-0.2012-0.58153-0.2949t-0.60358-0.0937q-0.56775 0-0.89297 0.3638-0.32521 0.3638-0.32521 1.0032 0 0.63666 0.32521 1.0005 0.32522 0.3638 0.89297 0.3638 0.31695 0 0.60358-0.0937t0.58153-0.2949z"/><path d="m253.92 350.64h-1.6592l-0.26183 0.74965h-1.0666l1.5241-4.1148h1.265l1.5241 4.1148h-1.0666zm-1.3946-0.76344h1.1272l-0.56223-1.6371z"/><path d="m255.79 347.27h1.1851l1.4966 2.8222v-2.8222h1.006v4.1148h-1.1851l-1.4965-2.8222v2.8222h-1.006z"/><path d="m262.48 347.27h2.8636v0.80202h-1.8025v0.76619h1.695v0.80201h-1.695v1.7446h-1.0611z"/><path d="m268.22 347.97q-0.48507 0-0.75241 0.35829t-0.26734 1.0087q0 0.64768 0.26734 1.006t0.75241 0.35829q0.48783 0 0.75517-0.35829 0.26733-0.35829 0.26733-1.006 0-0.65043-0.26733-1.0087-0.26734-0.35829-0.75517-0.35829zm0-0.76895q0.99219 0 1.5544 0.56776 0.56224 0.56775 0.56224 1.5682 0 0.9977-0.56224 1.5654t-1.5544 0.56775q-0.98943 0-1.5544-0.56775-0.56223-0.56775-0.56223-1.5654 0-1.0004 0.56223-1.5682 0.565-0.56776 1.5544-0.56776z"/><path d="m272.65 349.1q0.33348 0 0.4768-0.12402 0.14607-0.12403 0.14607-0.4079 0-0.28112-0.14607-0.40239-0.14332-0.12127-0.4768-0.12127h-0.44649v1.0556zm-0.44649 0.73312v1.5572h-1.0611v-4.1148h1.6206q0.81304 0 1.1906 0.27285 0.38034 0.27285 0.38034 0.86265 0 0.4079-0.19844 0.66973-0.19568 0.26182-0.59255 0.38585 0.21773 0.0496 0.3886 0.226 0.17363 0.17363 0.35002 0.52916l0.57602 1.1686h-1.13l-0.5016-1.0225q-0.15159-0.30868-0.30868-0.42168-0.15434-0.11299-0.41341-0.11299z"/><path d="m279.95 350.64h-1.6592l-0.26183 0.74965h-1.0666l1.5241-4.1148h1.265l1.5241 4.1148h-1.0666zm-1.3946-0.76344h1.1272l-0.56224-1.6371z"/><path d="m241.21 354.33h1.0666l1.0914 3.0372 1.0886-3.0372h1.0666l-1.5241 4.1148h-1.265z"/><path d="m246.07 354.33h1.0611v4.1148h-1.0611z"/><path d="m249.23 355.13v2.5108h0.38033q0.65044 0 0.99219-0.32246 0.34451-0.32246 0.34451-0.93706 0-0.61185-0.34175-0.93156-0.34176-0.3197-0.99495-0.3197zm-1.0611-0.80202h1.119q0.93707 0 1.3946 0.13505 0.46026 0.13229 0.78823 0.45199 0.28939 0.27837 0.42995 0.64217t0.14056 0.82407q0 0.46577-0.14056 0.83233-0.14056 0.3638-0.42995 0.64217-0.33072 0.3197-0.79375 0.45475-0.46302 0.13229-1.3891 0.13229h-1.119z"/><path d="m252.86 354.33h2.8636v0.80202h-1.8025v0.76619h1.695v0.80201h-1.695v0.94258h1.8631v0.80202h-2.9242z"/><path d="m258.59 355.02q-0.48507 0-0.7524 0.35829-0.26734 0.35829-0.26734 1.0087 0 0.64768 0.26734 1.006 0.26733 0.35829 0.7524 0.35829 0.48783 0 0.75517-0.35829t0.26734-1.006q0-0.65043-0.26734-1.0087t-0.75517-0.35829zm0-0.76894q0.99219 0 1.5544 0.56775t0.56224 1.5682q0 0.9977-0.56224 1.5654-0.56224 0.56776-1.5544 0.56776-0.98943 0-1.5544-0.56776-0.56224-0.56775-0.56224-1.5654 0-1.0004 0.56224-1.5682 0.56499-0.56775 1.5544-0.56775z"/><path d="m267.17 358.14q-0.39687 0.19292-0.82407 0.28938-0.42719 0.0965-0.88194 0.0965-1.028 0-1.6288-0.57327-0.60082-0.57602-0.60082-1.5599 0-0.99494 0.61184-1.5654 0.61185-0.5705 1.6757-0.5705 0.41065 0 0.78548 0.0772 0.37758 0.0772 0.71107 0.22875v0.85163q-0.34451-0.19568-0.68627-0.29215-0.33899-0.0965-0.68075-0.0965-0.63389 0-0.9784 0.35554-0.34176 0.35277-0.34176 1.0115 0 0.65319 0.33073 1.0087 0.33073 0.35553 0.93982 0.35553 0.16537 0 0.30593-0.0193 0.14331-0.022 0.25631-0.0661v-0.79926h-0.64767v-0.71107h1.6536z"/><path d="m268.11 354.33h1.0611v2.4667q0 0.50987 0.16536 0.73036 0.16812 0.21773 0.54571 0.21773 0.38033 0 0.5457-0.21773 0.16812-0.22049 0.16812-0.73036v-2.4667h1.0611v2.4667q0 0.87367-0.43822 1.3009-0.43821 0.4272-1.3367 0.4272-0.89573 0-1.3339-0.4272-0.43822-0.42719-0.43822-1.3009z"/><path d="m272.69 354.33h1.0611v4.1148h-1.0611z"/><path d="m275.85 355.13v2.5108h0.38034q0.65043 0 0.99218-0.32246 0.34451-0.32246 0.34451-0.93706 0-0.61185-0.34175-0.93156-0.34175-0.3197-0.99494-0.3197zm-1.0611-0.80202h1.119q0.93707 0 1.3946 0.13505 0.46026 0.13229 0.78824 0.45199 0.28938 0.27837 0.42994 0.64217t0.14056 0.82407q0 0.46577-0.14056 0.83233-0.14056 0.3638-0.42994 0.64217-0.33073 0.3197-0.79375 0.45475-0.46302 0.13229-1.3891 0.13229h-1.119z"/><path d="m279.48 354.33h2.8636v0.80202h-1.8025v0.76619h1.695v0.80201h-1.695v0.94258h1.8631v0.80202h-2.9242z"/></g></svg>
