<svg version="1" xmlns="http://www.w3.org/2000/svg" width="2170.667" height="2170.667" viewBox="0 0 1628.000000 1628.000000"><path d="M319.3 406.2c.2 223.5.6 408.1.9 410.3.4 2.2.9 7.8 1.3 12.5.4 4.6.8 8.7 1.1 9.1.2.4.6 3.6.8 7.2.2 3.6.6 6.9.9 7.3.2.5.7 3.1 1.1 5.9.6 5.4 1.2 8.9 2.2 13.2.4 1.6.7 4 .9 5.4.1 1.4.4 3 .7 3.5.8 1.2 2.1 9.7 1.6 10.5-.2.3.2 1.2.9 2 .6.8 1.4 3 1.7 4.9.6 3.3 1.3 6.2 3.6 14.7.6 2.1 1.3 4.8 1.5 5.9.6 2.8 10.3 32.3 11.5 35.1 2.6 6 5.2 13.1 5.1 13.7 0 .3.8 2.2 1.9 4.1 1.1 2 2 4.4 2 5.4s.7 2.4 1.5 3.1c.9.7 1.3 1.5 1 1.8-.2.3.4 2.1 1.5 4.1 1 2 4.4 9 7.5 15.6 8.5 17.8 9.5 19.9 10.5 21.5.8 1.3 8.3 14.7 11.4 20.5.6 1.1 3.1 5.4 5.6 9.5 4.8 8.1 6.3 10.5 15.3 23.9 2.3 3.5 4.9 7.4 5.7 8.7 2.9 4.4 7.4 10.9 8.7 12.4.7.8 4.1 5.3 7.4 9.9 6.9 9.5 6.7 9.2 11.4 14.6 1.9 2.2 3.5 4.3 3.5 4.7 0 .5.8 1.6 1.8 2.6.9 1 3.4 3.9 5.5 6.5 2.1 2.5 4.3 5.2 5 5.9.7.7 3.9 4.5 7.2 8.3 3.2 3.9 6.6 7.7 7.5 8.6.8.9 4.4 4.9 8 8.9 7.9 8.9 39.7 40.8 50.2 50.5 6.8 6.2 13.4 12.1 23.2 20.7 1.7 1.6 3.8 3.4 4.6 4.1.8.7 5.6 4.7 10.5 8.8 5 4.1 9.2 7.7 9.3 8.1.2.5.8.8 1.3.8s2.3 1.4 3.9 3c1.6 1.7 3.4 3 3.9 3s1.1.3 1.3.7c.2.5 2.3 2.4 4.8 4.3s5.1 3.9 5.8 4.5c.7.5 2.2 1.8 3.3 2.8 1 .9 2.2 1.7 2.5 1.7.3 0 2.7 1.7 5.3 3.8 2.5 2.2 12 9.2 21.1 15.6 9.1 6.5 17.3 12.4 18.3 13.2.9.8 2 1.4 2.3 1.4.8 0 6.9 4.4 7.2 5.2.2.5 1 .8 1.7.8s1.5.3 1.7.7c.4 1.1 11.6 8.3 12.7 8.3.6 0 1.4.6 1.8 1.3.4.7 3.1 2.6 5.8 4.2 2.8 1.5 6.4 3.8 8 4.9 1.7 1.2 3.9 2.6 5 3.3 7.6 4.6 15 8.9 16.6 9.8 1 .5 1.9 1.3 1.9 1.7 0 .5.4.8.9.8.4 0 6.6 3.4 13.7 7.5s13.4 7.5 14.1 7.5c.6 0 1.3.4 1.5.8.3.9 10.8 6.8 24.3 13.6 4.4 2.2 8.3 4.4 8.6 4.9.3.5.9.8 1.3.8.3-.1 7.1 3 15.1 6.9 7.9 3.8 14.7 7 15.1 7 .7 0 12.9-5.5 15.4-7 .8-.4 6.7-3.4 13-6.6 6.3-3.1 11.7-6 12-6.3.3-.3 2.5-1.6 5-2.8 6.4-3.2 21.2-11.4 23-12.7.8-.7 2.9-1.8 4.5-2.6 1.7-.8 4.9-2.7 7.2-4.3 2.4-1.5 4.3-2.5 4.3-2.2 0 .3.6.1 1.3-.5.6-.6 3.5-2.5 6.2-4.2 2.8-1.7 6.1-3.8 7.5-4.7 1.4-.9 4.2-2.5 6.3-3.6 2-1.1 3.7-2.3 3.7-2.7 0-.5.5-.8 1-.8 1 0 38.8-24.5 40-25.9.3-.3 1.7-1.2 3.3-2 1.5-.8 2.7-1.8 2.7-2.3 0-.4.5-.8 1.1-.8.7 0 3.1-1.6 5.5-3.5 2.3-1.9 4.7-3.5 5.2-3.5.6 0 1.2-.3 1.4-.8.2-.4 3.7-3.2 7.8-6.1 4.1-3 7.7-5.8 7.8-6.3.2-.4 1-.8 1.7-.8.8 0 2.1-1 2.9-2.2.9-1.2 1.6-1.9 1.6-1.5 0 .6 20.9-15.3 24.6-18.7.7-.6 2.4-2 3.9-3 1.4-1.1 3.6-2.8 4.8-3.9 1.2-1 3.5-2.8 5-4 1.6-1.2 4.5-3.6 6.5-5.4 2.1-1.8 7.8-6.7 12.7-10.9 17.5-15 46.4-42.2 59.9-56.3 2.8-2.9 7.8-8.2 11.1-11.6 3.3-3.5 8.7-9.4 12-13.1 3.3-3.7 6.9-7.8 8-9 1.1-1.3 3.6-4.2 5.5-6.5s4-4.7 4.5-5.3c3.3-3.6 15.4-18.7 22.5-28.1 4.6-6.1 8.6-11.2 9-11.5.3-.3.9-1.2 1.3-2s3.2-4.9 6.2-9c3.1-4.1 5.8-8.3 6.2-9.3.3-.9.8-1.7 1.2-1.7.4 0 1.5-1.6 2.5-3.5 1.1-1.9 2.3-3.5 2.8-3.5.4 0 .7-.4.5-.8-.1-.5.6-2 1.5-3.3 3-4.1 6.8-10 6.8-10.4 0-.2 2-3.6 4.5-7.4 2.5-3.8 4.5-7.3 4.5-7.8s.9-1.9 2-3.1c1.2-1.2 1.9-2.2 1.6-2.2-.3 0 1.4-3.3 3.6-7.3 6.1-10.7 15.8-30 15.8-31.5 0-.6.5-1.2 1-1.2.6 0 1-.9 1-2s.4-2 .9-2 1.5-2 2.2-4.5c.7-2.5 1.7-4.5 2.1-4.5.4 0 1-1.6 1.4-3.5.3-1.9 1-3.5 1.4-3.5.4 0 1.1-1.2 1.5-2.8.3-1.5 1.2-4.1 1.9-5.7 2.5-5.9 3.8-9 3.8-9.5 0-.3.5-1.4 1.1-2.5.6-1.1 1.2-2.2 1.2-2.5.9-3.5 1.9-6.7 2.5-7.5.7-.9 7.7-22 8.5-25.5.2-.8.4-1.6.5-1.8.2-.1.4-.7.5-1.2.1-.6.3-1.1.5-1.3.1-.1.3-.9.5-1.8.1-.9 1.1-4.3 2-7.5.9-3.3 1.8-6.6 2-7.4.2-.8.8-3.3 1.3-5.5.6-2.2 1.3-5.1 1.6-6.5 2.2-10.6 4.7-22.7 5.1-25.3.3-1.8.8-3.9 1-4.7.3-1.4 1.3-7.9 2-14 .2-1.4.6-4.5.9-7 1.1-8.2 1.6-12.4 2.1-19 .3-3.6.9-9 1.2-12 .3-3 .7-185.6.7-405.8l.2-400.2H319l.3 406.2z"/><path d="M397 1198.7c-3 .8-6.2 2.1-7.1 2.9-.8.8-1.9 1.4-2.2 1.4-1.6 0-6.7 6-9.7 11.5-3.8 6.8-10.7 17.5-12.4 19-.6.5-2.7 3-4.7 5.5s-8.2 9.2-13.7 14.8c-5.5 5.7-11.5 12.2-13.3 14.3-1.9 2.2-4.7 5.4-6.3 7.2-5.4 6.1-7.6 15.7-5.5 24.2.5 2.2 1.1 4.4 1.2 5 .1.5.6 1.6 1 2.2.5.7 1 2.1 1.2 3.1.6 3.5 9.5 15.2 11.5 15.2.6 0 .8.4.5 1-.3.5-.2 1 .4 1 .5 0 1.7.8 2.6 1.7.9.9 4.2 3.6 7.3 6 8.7 6.6 11.3 8.7 12.7 10 .7.7 1.5.9 1.9.6.3-.4.6-.1.6.5 0 .7.7 1.2 1.5 1.2s1.5.4 1.5.8c0 1.1 9.4 7.2 10.9 7.2.7 0 1 .3.7.8-.2.4 1.3 1.6 3.5 2.6 2.1 1.1 3.9 2.3 3.9 2.8 0 .4.4.8 1 .8.5 0 3.8 1.8 7.3 3.9 10.8 6.6 27.9 15.5 43.2 22.6 10.2 4.8 23.7 10.6 25 10.9.6.1 2.8 1 5 2s6.5 2.6 9.5 3.7 6.3 2.4 7.2 3c1 .5 2.2.9 2.7.9s2.4.6 4.2 1.4c1.9.8 3.9 1.5 4.4 1.6 1.1.2 7.8 2.7 11 4 1.1.5 7.6 2.7 14.5 5s13.2 4.4 14 4.8c.8.3 1.8.6 2.3.7.4.2.9.4 1.2.5.3.1.9.3 1.4.4.5 0 1.3.4 1.7.8.4.5 1.7.8 2.9.8s2.5.3 2.8.7c1.1 1 10.9 4.3 12.9 4.3 1 0 1.8.5 1.8 1.1 0 .5.4.8 1 .4.5-.3 1.7-.1 2.7.4 1 .6 7.2 2.9 13.8 5.1 6.6 2.2 12.7 4.3 13.5 4.7.8.3 2 .7 2.5.8 1.4.4 12.6 4.5 15 5.5 1.1.5 5.2 2.1 9 3.6 3.9 1.4 8.4 3.2 10 4 1.7.7 5.3 2.2 8 3.2 2.8 1.1 7.6 3.2 10.8 4.6 3.1 1.4 8.2 3.7 11.2 5.1 3 1.4 5.5 2.7 5.5 2.9 0 .7-14.2 11.6-15.1 11.6-.4 0-4.5-1.7-9.1-3.8-4.5-2.1-11-4.9-14.3-6.1-3.3-1.3-7.3-2.9-9-3.6-4.3-1.8-7.9-2.9-8.7-2.7-.5.1-.8-.3-.8-.8 0-.6-.8-1-1.8-1s-2.3-.5-3-1.2c-.7-.7-1.2-.9-1.2-.6 0 .4-4.4-.9-9.7-2.8-8.2-3-21.5-7.3-27.3-8.8-.8-.3-4.2-1.2-7.5-2.1-12.1-3.4-32.6-7.9-40.4-9-1.4-.2-4.2-.6-6.1-1-8-1.5-28.9-2.1-36.2-1-2.1.3-5 .8-6.5 1-7.6 1.1-17 5.9-21.6 10.9-2.4 2.6-18.2 33.4-17.7 34.5.1.2-.2.7-.7 1-.5.3-1.7 2.2-2.6 4.1-2.1 4.2-2.7 5.2-9.6 15.4-3 4.4-6.7 9.4-8.3 11.1-4.4 4.6-7.8 12.3-7.8 17.4 0 4.5 3.4 13.1 5.1 13.1.5 0 .9.5.9 1 0 1.1 1.9 3 9.3 9.3 2.5 2.1 6.1 5.3 7.9 7 1.9 1.8 6.2 5.7 9.7 8.7 3.5 3 7.6 6.6 9.1 8 2.8 2.6 7.4 6.7 18 16 3.5 3 7.5 6.5 8.9 7.8 2.3 2.1 11.3 7.3 13.4 7.8.4.1.8.2 1 .4.6.5 4.5 1.2 7 1.4 1.5 0 2.7.4 2.7.8s.6.6 1.3.3c1.1-.3 5.9-.7 27.7-2.2 20.7-1.5 69.7-.2 86.5 2.2 6.3.9 15.6.3 21.2-1.4 3.1-.9 10.7-5.7 13.5-8.4.7-.7 6.3-5.3 12.3-10.2 6.1-4.8 11.2-9.1 11.5-9.4.3-.3 2.1-1.8 4-3.2 3.3-2.5 3.8-2.6 7.5-1.4 2.2.7 6 1.8 8.5 2.5 2.5.8 5 1.7 5.6 2.2.6.4 1.3.5 1.6.3.3-.3 1.8-.1 3.4.6 1.6.6 3.6 1.2 4.4 1.4.8.2 3.5.9 6 1.6 2.5.7 5.2 1.4 6 1.6.8.1 5.3 1.2 10 2.3 4.7 1.2 9.4 2.3 10.5 2.6 1.1.2 5.3 1.1 9.2 1.9 4 .9 7.7 1.4 8.2 1 .5-.3 1.2-.1 1.5.4.3.5 3.2 1.2 6.3 1.6 7.3 1 8.9 1.2 13.6 2 2.1.4 6 .8 8.5 1 2.6.2 4.7.5 4.7.6 0 .1 2.3.3 5 .4 2.8.2 5 .4 5 .5 0 1.1 40.7 1.5 53.5.5 9.8-.7 14.5-1.2 14.5-1.5 0-.1 1.8-.3 4-.5 5.6-.4 12.4-1.5 16.5-2.5 1.9-.5 5.1-1.2 7-1.5 4.1-.7 11.3-2.6 22.5-6.1 7.8-2.4 8.9-2.8 15-5.5 1.7-.7 3.3-1.3 3.8-1.5.4-.1.9-.3 1.2-.4 1.3-.6 3.1-.5 3.6.3.3.5 6.1 6.4 12.9 13.2 11.7 11.9 20 17.8 26.5 19.1 1.1.2 4.3.8 7 1.4 8.8 1.8 24.9.2 34.5-3.4.8-.3 2.6-.7 4-1 1.4-.2 4.6-.9 7.3-1.5 2.6-.6 6.4-1.4 8.4-1.7 2-.3 4.7-1 6-1.5 1.8-.6 2.2-.6 1.7.3-.4.6-.3.8.3.5 3.5-2.2 38.3-4.1 41.1-2.3.7.4 1.2.2 1.2-.4 0-.6.5-.8 1.1-.4 2.5 1.5 41.5 2.3 49.9 1 5.8-.9 8.4-1.4 8.8-1.6.1-.2 1-.3 2-.4 4-.3 12.1-6.5 22.7-17.5 16.3-16.7 29.5-30.5 29.5-30.9 0-.2 1.1-1.3 2.3-2.5 3-2.8 5.2-9.2 3.8-11-.2-.1-.5-1.3-.7-2.7-.3-1.4-.9-2.6-1.4-2.8-.6-.2-1-.8-1-1.3 0-.6-3.2-4.3-7-8.3-6.9-7.1-19.7-23.6-18.4-23.6.4 0 0-.8-.8-1.8-2.5-2.9-8.6-18.2-11.4-28.2-3.5-13-5.1-16.5-9.5-20.5-4.1-3.6-12.1-8.1-16-8.9-8.2-1.7-11.9-2.1-15.9-2-5.9.2-16.9 1.2-19.9 1.8-1.3.3-4.9.8-7.9 1.1-3 .3-5.8.8-6.3 1.1-.6.3-3.3.8-6.2 1-2.9.2-7.9 1.1-11.2 1.9-3.3.8-7.6 1.7-9.5 2-1.9.3-5.9 1.2-9 2-3 .8-6.6 1.6-8 1.8-1.4.3-4.5 1.1-7 1.8s-5.2 1.4-6 1.4c-.9.1-2.6.7-3.8 1.4-1.2.6-2.2.9-2.2.7 0-.3-1.8.1-3.9.9-2.2.7-4.2 1.1-4.5.8-.3-.4-.6-.1-.6.6s-.5.9-1 .6c-.6-.4-1.6-.2-2.3.3-.7.6-2.9 1.3-4.9 1.7-2.1.4-3.8 1.1-3.8 1.7 0 .5-.4.7-.8.4-.8-.5-11.3 3-26.5 8.8l-6.9 2.6-7.4-5.1c-5.8-4.1-7.1-5.3-6.1-6.4.7-.7 1.4-1.1 1.6-.9.2.2.9 0 1.5-.5 1.1-.9 15.7-8.5 16.6-8.6.3-.1 3-1.3 6-2.7 13.6-6.3 17.2-7.8 28.5-12.2 6.6-2.5 12.8-5.1 13.8-5.6 1-.6 2.2-.8 2.7-.5.6.4 1 .2 1-.4 0-.6 1.6-1.3 3.5-1.7 1.9-.3 3.5-.9 3.5-1.3s.6-.8 1.3-.8c1.2 0 15.6-4.7 19.2-6.3 1.1-.5 4.9-1.8 8.5-2.9 3.6-1.2 7.9-2.6 9.5-3.2 7.8-2.7 23.5-7.8 25.2-8.1 1-.2 2-.6 2.3-.9.3-.3 4.3-1.8 9-3.3 4.7-1.5 9.2-3 10-3.3.8-.3 2.1-.7 2.8-.9.8-.1 2.1-.6 3-1 .9-.4 2.2-.8 2.7-1 1.3-.3 12.6-4.3 14.5-5.1.8-.3 2-.7 2.5-.8 1.3-.4 12.3-4.4 15-5.5 1.1-.4 5.8-2.3 10.5-4 9.9-3.8 14.3-5.6 18.5-7.5 10.6-4.9 16.9-7.5 18.1-7.5.7 0 1.4-.3 1.6-.8.2-.4 5.7-3.4 12.3-6.6 6.6-3.3 12.2-6.2 12.5-6.6.5-.6 3.3-2.2 9.7-5.4 1.3-.6 2.3-1.4 2.3-1.9 0-.4.5-.7 1-.7 1.3 0 16.4-10 16.8-11.2.2-.4.8-.8 1.3-.8 1.1 0 13.3-9.4 18.4-14.2 1.7-1.5 3.3-2.8 3.8-2.8.4 0 .7-.7.7-1.5s.5-1.5 1-1.5c.6 0 .9-.3.8-.8-.1-.4.3-1.6.9-2.7.6-1.2 1.4-3.9 1.8-6.2.7-5.2-1-8.9-7.4-15.4-4.2-4.3-7.8-8.3-16.1-17.9-1.7-1.9-3.8-4.7-4.7-6.3-1-1.5-2.1-2.7-2.5-2.7-.4 0-.8-.7-.8-1.5s-.3-1.5-.7-1.5c-1.7 0-11.7-19.3-14.2-27.4-3.2-10.3-6-15-12.6-20.4-.8-.7-1.5-1-1.5-.6s-.8 0-1.7-.8c-2-1.8-8.1-3.9-12.7-4.4-1.7-.2-4.3-.6-5.8-.8-1.6-.2-2.8 0-2.8.3s-2 .7-4.5.7c-5 .2-14.9 4.5-17.8 7.8-5.3 6.3-6.3 13.3-2.8 21.2 2.6 5.8 9.1 15.1 14.9 21.1 1.2 1.3 2.2 2.6 2.2 2.9 0 .3.9 1.5 2 2.7 1.2 1.2 2.9 3.6 4 5.4l1.9 3.3-6.7 3.9c-3.7 2.1-7 3.9-7.5 4-.4 0-1.7 1-2.9 2.1s-3 2-4 2-1.8.4-1.8.8-2 1.6-4.5 2.6c-2.5 1.1-4.5 2.3-4.5 2.8 0 .4-.3.7-.7.6-.5-.1-4.6 1.8-9.3 4.2-4.7 2.5-8.9 4.7-9.5 4.9-.5.2-5.7 2.6-11.4 5.3-9.4 4.5-14.8 6.9-16.1 7.3-.3 0-2.5 1-5 2.2-2.5 1.1-7 3.1-10 4.3-3 1.2-7.1 3-9 3.8-1.9.9-3.7 1.7-4 1.7-.8.2-4.1 1.6-8.7 3.6-2.3 1.1-4.9 1.9-5.7 1.9-.9 0-1.6.4-1.6.8 0 .5-.6.9-1.2.9-.7.1-7.4 2.4-14.8 5.3-7.4 2.8-16.2 6-19.5 7.1-3.3 1.2-7.4 2.7-9.2 3.5-1.7.8-3.6 1.4-4.2 1.4-.6 0-1.9.4-2.9.9-.9.6-4.2 1.7-7.2 2.6-3 .9-6.4 2-7.5 2.5-4.2 1.8-13.6 5-14.3 4.8-.4 0-1.6.2-2.7.7-1.1.4-3.5 1.4-5.4 2.1-1.8.8-3.7 1.1-4.2.8-.5-.3-.9-.1-.9.3 0 .9-8.7 3.8-10.2 3.5-.5-.1-.8.2-.8.6 0 .4-.8.8-1.7.8-1.4 0-11.6 3-24.3 7-.8.3-1.7.6-2 .6-.3 0-1.6.5-3 1s-3.2 1.1-4.1 1.3c-.9.2-4.7 1.3-8.5 2.5s-7.6 2.3-8.4 2.5c-21.1 5.4-30.7 9.3-36.1 14.5-2.5 2.4-7.2 9-6.4 9 .3 0-.1.7-.9 1.6-.9.8-1.6 2.2-1.6 2.9 0 .8-.9 3-2 5-1.1 1.9-1.8 3.5-1.5 3.5 1.6 0-21.3 40.1-24.5 43-4.6 4.1-10.3 14.9-10.5 20-.1 3.8 1.4 9 2.7 9 .4 0 .8.5.8 1.1 0 1.5 2.6 3.9 3.4 3.2.3-.4.6-.1.6.4 0 .6 3 4.1 6.6 7.8 3.6 3.6 6.4 6.8 6.2 7-.2.2-1.5.6-2.8.8-1.4.3-3.2.8-4 1.1-.8.3-2.6.8-4 1-1.4.3-5.3 1.2-8.7 2-3.4.9-7.6 1.7-9.3 1.8-1.6.1-3 .5-3 .9 0 .3-1.3.5-3 .4-1.6-.1-3 .1-3 .4 0 2-43.6 1.5-52.3-.6-1.2-.2-3.3-.6-4.7-.7-1.4-.1-3.1-.6-3.8-1-.7-.4-1.2-.5-1.2-.2 0 .2-2.3-.2-5.2-.9-2.8-.8-5.5-1.2-6-.9-.4.3-.8 0-.8-.6s-.4-.9-.8-.6c-.4.2-1.4.1-2-.3-.9-.5 0-1.8 3-4.2 2.3-1.9 4.9-4.1 5.8-5 .9-.8 3.7-3.1 6.3-5.1 2.5-1.9 4.4-3.7 4.2-4-.3-.3.6-1.1 2-1.8 3.4-1.8 6.4-8.3 5.8-12.3-.4-2.8-5.4-10.5-9.5-14.8-.7-.8-2.9-3.4-4.8-5.9-1.9-2.5-3.8-4.6-4.2-4.8-.5-.2-.8-.8-.8-1.4 0-.6-1.2-2.7-2.7-4.7-7-9.1-14.4-25.5-15.8-34.9-1.5-9.9-3.2-13.9-8.3-18.7-3.3-3.3-5.5-4.5-13.2-7.7-10-4.2-16.3-6.6-25.5-9.9-10.2-3.6-13.2-4.7-15.7-6-1-.5-2.6-.9-3.6-.9s-2.2-.3-2.6-.8c-.4-.4-1.1-.7-1.4-.7-.7-.1-7.7-2.3-10.2-3.2-.8-.3-1.9-.7-2.5-.9-.5-.2-7.7-2.6-16-5.4-8.2-2.8-15.7-5.2-16.5-5.3-.8-.1-1.9-.5-2.5-.9-.7-.4-18.9-6.4-22.5-7.3-.3-.1-1.8-.7-3.3-1.3-1.6-.7-3.4-1.2-4.2-1.2-.8 0-1.7-.5-2-1-.4-.6-1.1-.8-1.6-.4-.5.3-1.5.2-2.2-.4-.7-.5-5-2.2-9.7-3.7-4.7-1.5-9.6-3.2-11-3.8-1.4-.6-2.8-1.1-3.2-1.2-.5-.2-.9-.3-1-.5-.2-.1-1-.3-1.8-.5-2.2-.4-24.6-9.5-38.5-15.5-16.2-7.1-50.7-24.7-52.5-26.9-.3-.3-1.8-1.3-3.5-2.1-1.6-.8-5.2-3-8-4.8-2.7-1.8-5.7-3.7-6.5-4.2-6.9-4.4-33.4-24.3-36.8-27.7-.7-.7-2.2-1.9-3.4-2.7l-2.1-1.5 2.3-4.3c1.3-2.4 3.5-6.6 4.9-9.3 1.4-2.8 2.9-5.3 3.4-5.6.5-.3.8-.8.7-1-.1-.2.5-2.2 1.5-4.4.9-2.2 2.2-5.1 2.7-6.5 1.4-3.3 1.8-4.7 2.5-9.8 1.8-13.4-15.3-22.3-33.7-17.5zm780 106.9c-6.5 3.7-26.9 14.3-27.8 14.4-.4.1-4.4 1.9-8.9 4-4.5 2.2-11 5.1-14.5 6.5-3.5 1.4-7.6 3.3-9.3 4.2-1.6 1-3.1 1.6-3.3 1.5-.1-.1-1.9.5-4 1.4-2 .8-8.4 3.3-14.2 5.5-5.8 2.2-11.4 4.4-12.5 4.9-3.4 1.7-42.8 15-43.2 14.7-.2-.2 5.6-2.5 12.9-5.1 7.3-2.6 14.2-5.1 15.3-5.6 1.7-.8 5.9-2.2 7.5-2.5.3-.1 2.3-.9 4.4-1.8 2.1-1 5.7-2.3 8-3.1 2.3-.8 6.8-2.6 10.1-4.1 3.3-1.4 6.1-2.6 6.3-2.5.1 0 2.4-.9 5-2.1 2.6-1.1 5.2-2.2 5.7-2.3.6-.1 2-.7 3.1-1.4 1.2-.6 2.4-.8 2.8-.5.3.3.6.1.6-.5 0-.7.5-1.2 1-1.2.6 0 2.7-.7 4.8-1.6 2-.8 3.8-1.5 4-1.4.1 0 2.9-1.3 6.2-3 3.3-1.7 6-2.7 6-2.3 0 .5.4.3.8-.2.4-.6 1.8-1.5 3.2-2.1 1.4-.6 9.3-4.5 17.5-8.6 15-7.6 21-10.1 12.5-5.2zm-139.3 58c-.3.3-1.2.4-1.9.1-.8-.3-.5-.6.6-.6 1.1-.1 1.7.2 1.3.5zm-3.7.8c0 .2-.7.7-1.6 1-.8.3-1.2.2-.9-.4.6-1 2.5-1.4 2.5-.6zm-7.5 2.6c-.3.5-1.4 1-2.3.9-1.4 0-1.3-.2.3-.9 2.7-1.1 2.7-1.1 2 0zm-10.1 2.8c.3.5-.1.9-.9.9s-1.2-.4-.9-.9c.3-.4.7-.8.9-.8.2 0 .6.4.9.8zM537 1541.7c1.4.3 3.4.8 4.5 1 2.2.3 6.7 1.2 10.5 1.9 1.4.3 4 .6 5.9.9 4.9.6 5.7 1.9 2.4 4-1.5 1-3.2 2.4-3.6 3.2-.4.7-1.2 1.3-1.7 1.3-.6 0-1.9.9-3 2-2.3 2.3-3.4 1.9-8.5-2.5-1.6-1.5-4.5-3.9-6.4-5.3-1.8-1.5-4.8-3.9-6.5-5.4l-3.1-2.8 3.5.6c1.9.3 4.6.8 6 1.1zm553.9 3.8c2.1.5 1.7 1-4.3 4.8-3.6 2.3-12.2 7.9-19 12.4l-12.5 8.1-4.8-5.2c-9.6-10.4-11.3-12.5-10.5-12.9.5-.3 7.5-2.2 12.5-3.3.4-.1.8-.2 1-.4.9-.7 14.4-3.2 20.2-3.7 3.3-.3 6.1-.6 6.2-.7.4-.4 8.6.3 11.2.9z"/></svg>