<?xml version="1.0" encoding="utf-8"?>
<!-- Generator: Circuit Diagram, cdlibrary.dll 1.0.0.0 -->
<!DOCTYPE svg PUBLIC "-//W3C//DTD SVG 1.1//EN" "http://www.w3.org/Graphics/SVG/1.1/DTD/svg11.dtd">
<svg version="1.1" width="200" height="160" xmlns="http://www.w3.org/2000/svg">
	<path d="M 100,80 M 100,110 L 60,110 L 30,50 L 85,50 L 100,80 L 115,50 L 170,50 L 140,110 L 100,110" style="fill-opacity:0;fill:rgb(0, 0, 0);stroke:rgb(0, 0, 0);stroke-linecap:square;stroke-width:2" />
	<line x1="60" y1="50" x2="60" y2="20" style="stroke:rgb(0, 0, 0);stroke-linecap:square;stroke-width:2" />
	<line x1="140" y1="50" x2="140" y2="20" style="stroke:rgb(0, 0, 0);stroke-linecap:square;stroke-width:2" />
	<line x1="100" y1="110" x2="100" y2="140" style="stroke:rgb(0, 0, 0);stroke-linecap:square;stroke-width:2" />
	<line x1="155" y1="80" x2="170" y2="80" style="stroke:rgb(0, 0, 0);stroke-linecap:square;stroke-width:2" />
	<text x="60" y="60" style="font-family:Arial;font-size:12px;text-anchor:middle" dominant-baseline="middle" transform="rotate(0, 60, 60)">A</text>
	<text x="140" y="60" style="font-family:Arial;font-size:12px;text-anchor:middle" dominant-baseline="middle" transform="rotate(0, 140, 60)">B</text>
	<text x="100" y="100" style="font-family:Arial;font-size:12px;text-anchor:middle" dominant-baseline="middle" transform="rotate(0, 100, 100)">SUM</text>
	<line x1="30" y1="80" x2="45" y2="80" style="stroke:rgb(0, 0, 0);stroke-linecap:square;stroke-width:2" />
	<text x="53" y="80" style="font-family:Arial;font-size:12px;text-anchor:start" dominant-baseline="middle" transform="rotate(0, 53, 80)">C<tspan baseline-shift="sub" style="font-size:0.8em">in</tspan></text>
	<text x="147" y="80" style="font-family:Arial;font-size:12px;text-anchor:end" dominant-baseline="middle" transform="rotate(0, 147, 80)">C<tspan baseline-shift="sub" style="font-size:0.8em">out</tspan></text>
</svg>